<svg width="66" height="84" viewBox="0 0 66 84" fill="none" xmlns="http://www.w3.org/2000/svg">
<g filter="url(#filter0_d_1102_25)">
<path d="M33 0C17.0181 0 4 13.0181 4 29C4 33.4788 5.85655 38.2464 8.40664 43.1828C10.9567 48.1198 14.2889 53.1851 17.6051 57.7734C24.2374 66.9496 30.8477 74.2672 30.8477 74.2672C31.1196 74.5683 31.4516 74.8089 31.8224 74.9737C32.1931 75.1384 32.5943 75.2235 33 75.2235C33.4057 75.2235 33.8069 75.1384 34.1776 74.9737C34.5484 74.8089 34.8804 74.5683 35.1523 74.2672C35.1523 74.2672 41.7626 66.9496 48.3949 57.7734C51.7111 53.1851 55.0433 48.1198 57.5934 43.1828C60.1435 38.2464 62 33.4788 62 29C62 13.0181 48.9819 0 33 0ZM33 5.8C45.8474 5.8 56.2 16.1524 56.2 29C56.2 31.7289 54.794 35.9834 52.4504 40.5207C50.1067 45.0575 46.9139 49.9357 43.7051 54.375C38.363 61.7665 34.6445 65.8333 33 67.6969C31.3555 65.8333 27.637 61.7665 22.2949 54.375C19.0861 49.9357 15.8933 45.0575 13.5496 40.5207C11.206 35.9834 9.8 31.7289 9.8 29C9.8 16.1524 20.1526 5.8 33 5.8ZM33 14.5C26.6278 14.5 21.4 19.7281 21.4 26.1C21.4 32.4725 26.6278 37.7 33 37.7C39.3722 37.7 44.6 32.4725 44.6 26.1C44.6 19.7281 39.3722 14.5 33 14.5ZM33 20.3C36.2376 20.3 38.8 22.8624 38.8 26.1C38.8 29.3376 36.2376 31.9 33 31.9C29.7624 31.9 27.2 29.3376 27.2 26.1C27.2 22.8624 29.7624 20.3 33 20.3Z" fill="white"/>
</g>
<path d="M33 5.79998C20.1526 5.79998 9.79999 16.1524 9.79999 29C9.79999 31.7289 11.2059 35.9833 13.5496 40.5207C15.8933 45.0574 19.0861 49.9357 22.2949 54.375C27.637 61.7665 31.3555 65.8333 33 67.6968C34.6445 65.8333 38.363 61.7665 43.7051 54.375C46.9139 49.9357 50.1067 45.0574 52.4504 40.5207C54.794 35.9833 56.2 31.7289 56.2 29C56.2 16.1524 45.8473 5.79998 33 5.79998ZM33 14.5C39.3721 14.5 44.6 19.7281 44.6 26.1C44.6 32.4724 39.3721 37.7 33 37.7C26.6278 37.7 21.4 32.4724 21.4 26.1C21.4 19.7281 26.6278 14.5 33 14.5Z" fill="#3E64DA"/>
<circle cx="33" cy="27" r="15" fill="#3E64DA"/>
<path d="M32.9636 37.1989C31.903 37.1989 30.9584 37.0166 30.1298 36.652C29.3059 36.2827 28.6549 35.776 28.1767 35.1321C27.7032 34.4834 27.4593 33.7353 27.4451 32.8878H30.5417C30.5607 33.2429 30.6767 33.5554 30.8897 33.8253C31.1075 34.0904 31.3964 34.2964 31.7562 34.4432C32.1161 34.59 32.5209 34.6634 32.9707 34.6634C33.4395 34.6634 33.8538 34.5805 34.2136 34.4148C34.5734 34.2491 34.8552 34.0194 35.0588 33.7259C35.2624 33.4323 35.3642 33.0937 35.3642 32.7102C35.3642 32.322 35.2553 31.9787 35.0375 31.6804C34.8244 31.3774 34.5166 31.1406 34.1142 30.9702C33.7164 30.7997 33.243 30.7145 32.6937 30.7145H31.3372V28.456H32.6937C33.1577 28.456 33.5673 28.3755 33.9224 28.2145C34.2823 28.0535 34.5616 27.831 34.7605 27.5469C34.9593 27.258 35.0588 26.9219 35.0588 26.5384C35.0588 26.1738 34.9712 25.8542 34.796 25.5795C34.6255 25.3002 34.3841 25.0824 34.0716 24.9261C33.7638 24.7699 33.4039 24.6918 32.992 24.6918C32.5753 24.6918 32.1942 24.7675 31.8485 24.919C31.5029 25.0658 31.2259 25.2765 31.0176 25.5511C30.8092 25.8258 30.698 26.1477 30.6838 26.517H27.7363C27.7505 25.679 27.9896 24.9403 28.4537 24.3011C28.9177 23.6619 29.5427 23.1624 30.3287 22.8026C31.1194 22.438 32.0119 22.2557 33.0062 22.2557C34.01 22.2557 34.8883 22.438 35.6412 22.8026C36.394 23.1671 36.9788 23.6596 37.3954 24.2798C37.8168 24.8954 38.0252 25.5866 38.0204 26.3537C38.0252 27.1681 37.7718 27.8475 37.2605 28.392C36.7538 28.9366 36.0933 29.2822 35.2789 29.429V29.5426C36.349 29.6799 37.1634 30.0516 37.7221 30.6577C38.2856 31.259 38.5649 32.0118 38.5602 32.9162C38.5649 33.7448 38.3258 34.4811 37.8429 35.125C37.3646 35.7689 36.7041 36.2756 35.8613 36.6449C35.0185 37.0142 34.0526 37.1989 32.9636 37.1989Z" fill="white"/>
<defs>
<filter id="filter0_d_1102_25" x="0" y="0" width="66" height="83.2235" filterUnits="userSpaceOnUse" color-interpolation-filters="sRGB">
<feFlood flood-opacity="0" result="BackgroundImageFix"/>
<feColorMatrix in="SourceAlpha" type="matrix" values="0 0 0 0 0 0 0 0 0 0 0 0 0 0 0 0 0 0 127 0" result="hardAlpha"/>
<feOffset dy="4"/>
<feGaussianBlur stdDeviation="2"/>
<feComposite in2="hardAlpha" operator="out"/>
<feColorMatrix type="matrix" values="0 0 0 0 0 0 0 0 0 0 0 0 0 0 0 0 0 0 0.25 0"/>
<feBlend mode="normal" in2="BackgroundImageFix" result="effect1_dropShadow_1102_25"/>
<feBlend mode="normal" in="SourceGraphic" in2="effect1_dropShadow_1102_25" result="shape"/>
</filter>
</defs>
</svg>
