<svg width="66" height="84" viewBox="0 0 66 84" fill="none" xmlns="http://www.w3.org/2000/svg">
<g filter="url(#filter0_d_1102_55)">
<path d="M33 0C17.0181 0 4 13.0181 4 29C4 33.4788 5.85655 38.2464 8.40664 43.1828C10.9567 48.1198 14.2889 53.1851 17.6051 57.7734C24.2374 66.9496 30.8477 74.2672 30.8477 74.2672C31.1196 74.5683 31.4516 74.8089 31.8224 74.9737C32.1931 75.1384 32.5943 75.2235 33 75.2235C33.4057 75.2235 33.8069 75.1384 34.1776 74.9737C34.5484 74.8089 34.8804 74.5683 35.1523 74.2672C35.1523 74.2672 41.7626 66.9496 48.3949 57.7734C51.7111 53.1851 55.0433 48.1198 57.5934 43.1828C60.1435 38.2464 62 33.4788 62 29C62 13.0181 48.9819 0 33 0ZM33 5.8C45.8474 5.8 56.2 16.1524 56.2 29C56.2 31.7289 54.794 35.9834 52.4504 40.5207C50.1067 45.0575 46.9139 49.9357 43.7051 54.375C38.363 61.7665 34.6445 65.8333 33 67.6969C31.3555 65.8333 27.637 61.7665 22.2949 54.375C19.0861 49.9357 15.8933 45.0575 13.5496 40.5207C11.206 35.9834 9.8 31.7289 9.8 29C9.8 16.1524 20.1526 5.8 33 5.8ZM33 14.5C26.6278 14.5 21.4 19.7281 21.4 26.1C21.4 32.4725 26.6278 37.7 33 37.7C39.3722 37.7 44.6 32.4725 44.6 26.1C44.6 19.7281 39.3722 14.5 33 14.5ZM33 20.3C36.2376 20.3 38.8 22.8624 38.8 26.1C38.8 29.3376 36.2376 31.9 33 31.9C29.7624 31.9 27.2 29.3376 27.2 26.1C27.2 22.8624 29.7624 20.3 33 20.3Z" fill="white"/>
</g>
<path d="M33 5.79997C20.1526 5.79997 9.79999 16.1524 9.79999 29C9.79999 31.7289 11.2059 35.9833 13.5496 40.5207C15.8933 45.0574 19.0861 49.9356 22.2949 54.375C27.637 61.7665 31.3555 65.8333 33 67.6968C34.6445 65.8333 38.363 61.7665 43.7051 54.375C46.9139 49.9356 50.1067 45.0574 52.4504 40.5207C54.794 35.9833 56.2 31.7289 56.2 29C56.2 16.1524 45.8473 5.79997 33 5.79997ZM33 14.5C39.3721 14.5 44.6 19.7281 44.6 26.1C44.6 32.4724 39.3721 37.7 33 37.7C26.6278 37.7 21.4 32.4724 21.4 26.1C21.4 19.7281 26.6278 14.5 33 14.5Z" fill="#3E64DA"/>
<circle cx="33" cy="27" r="15" fill="#3E64DA"/>
<path d="M32.8402 22.2557C33.5883 22.2557 34.308 22.3812 34.9993 22.6321C35.6953 22.883 36.3156 23.2831 36.8601 23.8324C37.4093 24.3816 37.8426 25.1108 38.1598 26.0199C38.4818 26.9242 38.6451 28.0346 38.6499 29.3509C38.6499 30.5866 38.5102 31.6899 38.2308 32.6605C37.9562 33.6264 37.5608 34.4479 37.0447 35.125C36.5286 35.8021 35.906 36.3182 35.1768 36.6733C34.4477 37.0237 33.6333 37.1989 32.7337 37.1989C31.763 37.1989 30.906 37.0118 30.1626 36.6378C29.4193 36.259 28.8203 35.7453 28.3658 35.0966C27.916 34.4432 27.6437 33.7093 27.549 32.8949H30.5817C30.7 33.4252 30.9486 33.8371 31.3274 34.1307C31.7062 34.4195 32.175 34.5639 32.7337 34.5639C33.6806 34.5639 34.4003 34.152 34.8928 33.3281C35.3852 32.4995 35.6338 31.3655 35.6385 29.9261H35.5391C35.3213 30.3523 35.0277 30.7192 34.6584 31.027C34.2891 31.33 33.8653 31.5644 33.3871 31.7301C32.9136 31.8958 32.4093 31.9787 31.8743 31.9787C31.0173 31.9787 30.2526 31.7775 29.5803 31.375C28.9079 30.9725 28.3776 30.4186 27.9893 29.7131C27.6011 29.0076 27.407 28.2027 27.407 27.2983C27.4022 26.3229 27.6271 25.4541 28.0817 24.6918C28.5362 23.9295 29.1707 23.3329 29.9851 22.902C30.8042 22.4664 31.7559 22.2509 32.8402 22.2557ZM32.8615 24.6705C32.3833 24.6705 31.9571 24.7841 31.5831 25.0114C31.2138 25.2386 30.9202 25.544 30.7024 25.9276C30.4893 26.3111 30.3852 26.7396 30.3899 27.2131C30.3899 27.6913 30.4941 28.1222 30.7024 28.5057C30.9155 28.8845 31.2043 29.1875 31.5689 29.4148C31.9382 29.6373 32.3596 29.7486 32.8331 29.7486C33.1882 29.7486 33.5173 29.6823 33.8203 29.5497C34.1233 29.4171 34.3861 29.2348 34.6087 29.0028C34.8359 28.7661 35.0135 28.4938 35.1413 28.1861C35.2692 27.8783 35.3331 27.5516 35.3331 27.206C35.3284 26.7467 35.2195 26.3253 35.0064 25.9418C34.7933 25.5582 34.4998 25.2505 34.1257 25.0185C33.7517 24.7865 33.3303 24.6705 32.8615 24.6705Z" fill="white"/>
<defs>
<filter id="filter0_d_1102_55" x="0" y="0" width="66" height="83.2235" filterUnits="userSpaceOnUse" color-interpolation-filters="sRGB">
<feFlood flood-opacity="0" result="BackgroundImageFix"/>
<feColorMatrix in="SourceAlpha" type="matrix" values="0 0 0 0 0 0 0 0 0 0 0 0 0 0 0 0 0 0 127 0" result="hardAlpha"/>
<feOffset dy="4"/>
<feGaussianBlur stdDeviation="2"/>
<feComposite in2="hardAlpha" operator="out"/>
<feColorMatrix type="matrix" values="0 0 0 0 0 0 0 0 0 0 0 0 0 0 0 0 0 0 0.25 0"/>
<feBlend mode="normal" in2="BackgroundImageFix" result="effect1_dropShadow_1102_55"/>
<feBlend mode="normal" in="SourceGraphic" in2="effect1_dropShadow_1102_55" result="shape"/>
</filter>
</defs>
</svg>
