<svg width="66" height="84" viewBox="0 0 66 84" fill="none" xmlns="http://www.w3.org/2000/svg">
<g filter="url(#filter0_d_1102_61)">
<path d="M33 0C17.0181 0 4 13.0181 4 29C4 33.4788 5.85655 38.2464 8.40664 43.1828C10.9567 48.1198 14.2889 53.1851 17.6051 57.7734C24.2374 66.9496 30.8477 74.2672 30.8477 74.2672C31.1196 74.5683 31.4516 74.8089 31.8224 74.9737C32.1931 75.1384 32.5943 75.2235 33 75.2235C33.4057 75.2235 33.8069 75.1384 34.1776 74.9737C34.5484 74.8089 34.8804 74.5683 35.1523 74.2672C35.1523 74.2672 41.7626 66.9496 48.3949 57.7734C51.7111 53.1851 55.0433 48.1198 57.5934 43.1828C60.1435 38.2464 62 33.4788 62 29C62 13.0181 48.9819 0 33 0ZM33 5.8C45.8474 5.8 56.2 16.1524 56.2 29C56.2 31.7289 54.794 35.9834 52.4504 40.5207C50.1067 45.0575 46.9139 49.9357 43.7051 54.375C38.363 61.7665 34.6445 65.8333 33 67.6969C31.3555 65.8333 27.637 61.7665 22.2949 54.375C19.0861 49.9357 15.8933 45.0575 13.5496 40.5207C11.206 35.9834 9.8 31.7289 9.8 29C9.8 16.1524 20.1526 5.8 33 5.8ZM33 14.5C26.6278 14.5 21.4 19.7281 21.4 26.1C21.4 32.4725 26.6278 37.7 33 37.7C39.3722 37.7 44.6 32.4725 44.6 26.1C44.6 19.7281 39.3722 14.5 33 14.5ZM33 20.3C36.2376 20.3 38.8 22.8624 38.8 26.1C38.8 29.3376 36.2376 31.9 33 31.9C29.7624 31.9 27.2 29.3376 27.2 26.1C27.2 22.8624 29.7624 20.3 33 20.3Z" fill="white"/>
</g>
<path d="M33 5.79997C20.1526 5.79997 9.79999 16.1524 9.79999 29C9.79999 31.7289 11.2059 35.9833 13.5496 40.5207C15.8933 45.0574 19.0861 49.9356 22.2949 54.375C27.637 61.7665 31.3555 65.8333 33 67.6968C34.6445 65.8333 38.363 61.7665 43.7051 54.375C46.9139 49.9356 50.1067 45.0574 52.4504 40.5207C54.794 35.9833 56.2 31.7289 56.2 29C56.2 16.1524 45.8473 5.79997 33 5.79997ZM33 14.5C39.3721 14.5 44.6 19.7281 44.6 26.1C44.6 32.4724 39.3721 37.7 33 37.7C26.6278 37.7 21.4 32.4724 21.4 26.1C21.4 19.7281 26.6278 14.5 33 14.5Z" fill="#3E64DA"/>
<circle cx="33" cy="27" r="15" fill="#3E64DA"/>
<path d="M32.9938 37.1989C31.9 37.1989 30.927 37.0213 30.0748 36.6662C29.2272 36.3063 28.562 35.8163 28.079 35.196C27.5961 34.5758 27.3546 33.8726 27.3546 33.0866C27.3546 32.4806 27.4919 31.9242 27.7665 31.4176C28.0459 30.9062 28.4247 30.4825 28.9029 30.1463C29.3811 29.8054 29.9161 29.5876 30.508 29.4929V29.3935C29.7315 29.2372 29.1017 28.8608 28.6188 28.2642C28.1358 27.6629 27.8944 26.9645 27.8944 26.169C27.8944 25.4162 28.1145 24.7462 28.5549 24.1591C28.9952 23.5672 29.5989 23.1032 30.3659 22.767C31.1377 22.4261 32.0137 22.2557 32.9938 22.2557C33.9739 22.2557 34.8475 22.4261 35.6145 22.767C36.3863 23.108 36.9924 23.5743 37.4327 24.1662C37.873 24.7533 38.0956 25.4209 38.1003 26.169C38.0956 26.9692 37.8494 27.6676 37.3617 28.2642C36.874 28.8608 36.249 29.2372 35.4867 29.3935V29.4929C36.0691 29.5876 36.597 29.8054 37.0705 30.1463C37.5487 30.4825 37.9275 30.9062 38.2069 31.4176C38.4909 31.9242 38.6354 32.4806 38.6401 33.0866C38.6354 33.8726 38.3915 34.5758 37.9086 35.196C37.4256 35.8163 36.758 36.3063 35.9057 36.6662C35.0582 37.0213 34.0875 37.1989 32.9938 37.1989ZM32.9938 34.9403C33.4815 34.9403 33.9076 34.8527 34.2722 34.6776C34.6368 34.4976 34.9209 34.2514 35.1245 33.9389C35.3328 33.6217 35.437 33.2571 35.437 32.8452C35.437 32.4238 35.3304 32.0521 35.1174 31.7301C34.9043 31.4034 34.6155 31.1477 34.2509 30.9631C33.8863 30.7737 33.4673 30.679 32.9938 30.679C32.525 30.679 32.106 30.7737 31.7367 30.9631C31.3674 31.1477 31.0762 31.4034 30.8631 31.7301C30.6548 32.0521 30.5506 32.4238 30.5506 32.8452C30.5506 33.2571 30.6524 33.6217 30.856 33.9389C31.0596 34.2514 31.3461 34.4976 31.7154 34.6776C32.0847 34.8527 32.5108 34.9403 32.9938 34.9403ZM32.9938 28.4418C33.401 28.4418 33.7632 28.3589 34.0804 28.1932C34.3977 28.0275 34.6462 27.7978 34.8262 27.5043C35.0061 27.2107 35.0961 26.8722 35.0961 26.4886C35.0961 26.1098 35.0061 25.7784 34.8262 25.4943C34.6462 25.2055 34.4 24.9806 34.0875 24.8196C33.775 24.6539 33.4105 24.571 32.9938 24.571C32.5819 24.571 32.2173 24.6539 31.9 24.8196C31.5828 24.9806 31.3342 25.2055 31.1543 25.4943C30.9791 25.7784 30.8915 26.1098 30.8915 26.4886C30.8915 26.8722 30.9815 27.2107 31.1614 27.5043C31.3413 27.7978 31.5899 28.0275 31.9071 28.1932C32.2244 28.3589 32.5866 28.4418 32.9938 28.4418Z" fill="white"/>
<defs>
<filter id="filter0_d_1102_61" x="0" y="0" width="66" height="83.2235" filterUnits="userSpaceOnUse" color-interpolation-filters="sRGB">
<feFlood flood-opacity="0" result="BackgroundImageFix"/>
<feColorMatrix in="SourceAlpha" type="matrix" values="0 0 0 0 0 0 0 0 0 0 0 0 0 0 0 0 0 0 127 0" result="hardAlpha"/>
<feOffset dy="4"/>
<feGaussianBlur stdDeviation="2"/>
<feComposite in2="hardAlpha" operator="out"/>
<feColorMatrix type="matrix" values="0 0 0 0 0 0 0 0 0 0 0 0 0 0 0 0 0 0 0.25 0"/>
<feBlend mode="normal" in2="BackgroundImageFix" result="effect1_dropShadow_1102_61"/>
<feBlend mode="normal" in="SourceGraphic" in2="effect1_dropShadow_1102_61" result="shape"/>
</filter>
</defs>
</svg>
