<svg width="66" height="84" viewBox="0 0 66 84" fill="none" xmlns="http://www.w3.org/2000/svg">
<g filter="url(#filter0_d_1102_67)">
<path d="M33 0C17.0181 0 4 13.0181 4 29C4 33.4788 5.85655 38.2464 8.40664 43.1828C10.9567 48.1198 14.2889 53.1851 17.6051 57.7734C24.2374 66.9496 30.8477 74.2672 30.8477 74.2672C31.1196 74.5683 31.4516 74.8089 31.8224 74.9737C32.1931 75.1384 32.5943 75.2235 33 75.2235C33.4057 75.2235 33.8069 75.1384 34.1776 74.9737C34.5484 74.8089 34.8804 74.5683 35.1523 74.2672C35.1523 74.2672 41.7626 66.9496 48.3949 57.7734C51.7111 53.1851 55.0433 48.1198 57.5934 43.1828C60.1435 38.2464 62 33.4788 62 29C62 13.0181 48.9819 0 33 0ZM33 5.8C45.8474 5.8 56.2 16.1524 56.2 29C56.2 31.7289 54.794 35.9834 52.4504 40.5207C50.1067 45.0575 46.9139 49.9357 43.7051 54.375C38.363 61.7665 34.6445 65.8333 33 67.6969C31.3555 65.8333 27.637 61.7665 22.2949 54.375C19.0861 49.9357 15.8933 45.0575 13.5496 40.5207C11.206 35.9834 9.8 31.7289 9.8 29C9.8 16.1524 20.1526 5.8 33 5.8ZM33 14.5C26.6278 14.5 21.4 19.7281 21.4 26.1C21.4 32.4725 26.6278 37.7 33 37.7C39.3722 37.7 44.6 32.4725 44.6 26.1C44.6 19.7281 39.3722 14.5 33 14.5ZM33 20.3C36.2376 20.3 38.8 22.8624 38.8 26.1C38.8 29.3376 36.2376 31.9 33 31.9C29.7624 31.9 27.2 29.3376 27.2 26.1C27.2 22.8624 29.7624 20.3 33 20.3Z" fill="white"/>
</g>
<path d="M33 5.79999C20.1526 5.79999 9.79999 16.1524 9.79999 29C9.79999 31.7289 11.2059 35.9833 13.5496 40.5207C15.8933 45.0574 19.0861 49.9357 22.2949 54.375C27.637 61.7665 31.3555 65.8333 33 67.6969C34.6445 65.8333 38.363 61.7665 43.7051 54.375C46.9139 49.9357 50.1067 45.0574 52.4504 40.5207C54.794 35.9833 56.2 31.7289 56.2 29C56.2 16.1524 45.8473 5.79999 33 5.79999ZM33 14.5C39.3721 14.5 44.6 19.7281 44.6 26.1C44.6 32.4724 39.3721 37.7 33 37.7C26.6278 37.7 21.4 32.4724 21.4 26.1C21.4 19.7281 26.6278 14.5 33 14.5Z" fill="#3E64DA"/>
<circle cx="33" cy="27" r="15" fill="#3E64DA"/>
<path d="M28.7298 22.4545V37H25.6545V25.3736H25.5692L22.2383 27.4616V24.7344L25.8391 22.4545H28.7298ZM37.8899 37.3196C36.6683 37.3149 35.6172 37.0142 34.7365 36.4176C33.8606 35.821 33.1858 34.9569 32.7124 33.8253C32.2436 32.6937 32.0116 31.3324 32.0163 29.7415C32.0163 28.1553 32.2507 26.8035 32.7195 25.6861C33.1929 24.5687 33.8677 23.7187 34.7436 23.1364C35.6243 22.5492 36.6731 22.2557 37.8899 22.2557C39.1068 22.2557 40.1532 22.5492 41.0291 23.1364C41.9098 23.7235 42.5869 24.5758 43.0604 25.6932C43.5339 26.8059 43.7682 28.1553 43.7635 29.7415C43.7635 31.3371 43.5268 32.7008 43.0533 33.8324C42.5845 34.964 41.9122 35.8281 41.0362 36.4247C40.1603 37.0213 39.1115 37.3196 37.8899 37.3196ZM37.8899 34.7699C38.7232 34.7699 39.3885 34.3509 39.8857 33.5128C40.3828 32.6747 40.629 31.4176 40.6243 29.7415C40.6243 28.6383 40.5107 27.7197 40.2834 26.9858C40.0608 26.2519 39.7436 25.7003 39.3317 25.331C38.9245 24.9616 38.4439 24.777 37.8899 24.777C37.0613 24.777 36.3984 25.1913 35.9013 26.0199C35.4041 26.8485 35.1532 28.089 35.1484 29.7415C35.1484 30.8589 35.2597 31.7917 35.4822 32.5398C35.7095 33.2831 36.0291 33.8419 36.4411 34.2159C36.853 34.5852 37.3359 34.7699 37.8899 34.7699Z" fill="white"/>
<defs>
<filter id="filter0_d_1102_67" x="0" y="0" width="66" height="83.2235" filterUnits="userSpaceOnUse" color-interpolation-filters="sRGB">
<feFlood flood-opacity="0" result="BackgroundImageFix"/>
<feColorMatrix in="SourceAlpha" type="matrix" values="0 0 0 0 0 0 0 0 0 0 0 0 0 0 0 0 0 0 127 0" result="hardAlpha"/>
<feOffset dy="4"/>
<feGaussianBlur stdDeviation="2"/>
<feComposite in2="hardAlpha" operator="out"/>
<feColorMatrix type="matrix" values="0 0 0 0 0 0 0 0 0 0 0 0 0 0 0 0 0 0 0.25 0"/>
<feBlend mode="normal" in2="BackgroundImageFix" result="effect1_dropShadow_1102_67"/>
<feBlend mode="normal" in="SourceGraphic" in2="effect1_dropShadow_1102_67" result="shape"/>
</filter>
</defs>
</svg>
