<svg width="66" height="84" viewBox="0 0 66 84" fill="none" xmlns="http://www.w3.org/2000/svg">
<g filter="url(#filter0_d_1102_43)">
<path d="M33 0C17.0181 0 4 13.0181 4 29C4 33.4788 5.85655 38.2464 8.40664 43.1828C10.9567 48.1198 14.2889 53.1851 17.6051 57.7734C24.2374 66.9496 30.8477 74.2672 30.8477 74.2672C31.1196 74.5683 31.4516 74.8089 31.8224 74.9737C32.1931 75.1384 32.5943 75.2235 33 75.2235C33.4057 75.2235 33.8069 75.1384 34.1776 74.9737C34.5484 74.8089 34.8804 74.5683 35.1523 74.2672C35.1523 74.2672 41.7626 66.9496 48.3949 57.7734C51.7111 53.1851 55.0433 48.1198 57.5934 43.1828C60.1435 38.2464 62 33.4788 62 29C62 13.0181 48.9819 0 33 0ZM33 5.8C45.8474 5.8 56.2 16.1524 56.2 29C56.2 31.7289 54.794 35.9834 52.4504 40.5207C50.1067 45.0575 46.9139 49.9357 43.7051 54.375C38.363 61.7665 34.6445 65.8333 33 67.6969C31.3555 65.8333 27.637 61.7665 22.2949 54.375C19.0861 49.9357 15.8933 45.0575 13.5496 40.5207C11.206 35.9834 9.8 31.7289 9.8 29C9.8 16.1524 20.1526 5.8 33 5.8ZM33 14.5C26.6278 14.5 21.4 19.7281 21.4 26.1C21.4 32.4725 26.6278 37.7 33 37.7C39.3722 37.7 44.6 32.4725 44.6 26.1C44.6 19.7281 39.3722 14.5 33 14.5ZM33 20.3C36.2376 20.3 38.8 22.8624 38.8 26.1C38.8 29.3376 36.2376 31.9 33 31.9C29.7624 31.9 27.2 29.3376 27.2 26.1C27.2 22.8624 29.7624 20.3 33 20.3Z" fill="white"/>
</g>
<path d="M33 5.79998C20.1526 5.79998 9.79999 16.1524 9.79999 29C9.79999 31.7289 11.2059 35.9833 13.5496 40.5207C15.8933 45.0574 19.0861 49.9357 22.2949 54.375C27.637 61.7665 31.3555 65.8333 33 67.6968C34.6445 65.8333 38.363 61.7665 43.7051 54.375C46.9139 49.9357 50.1067 45.0574 52.4504 40.5207C54.794 35.9833 56.2 31.7289 56.2 29C56.2 16.1524 45.8473 5.79998 33 5.79998ZM33 14.5C39.3721 14.5 44.6 19.7281 44.6 26.1C44.6 32.4724 39.3721 37.7 33 37.7C26.6278 37.7 21.4 32.4724 21.4 26.1C21.4 19.7281 26.6278 14.5 33 14.5Z" fill="#3E64DA"/>
<circle cx="33" cy="27" r="15" fill="#3E64DA"/>
<path d="M33.5462 37.1989C32.5424 37.1989 31.6475 37.0142 30.8615 36.6449C30.0803 36.2756 29.46 35.7666 29.0007 35.1179C28.5414 34.4692 28.3023 33.7259 28.2834 32.8878H31.2663C31.2995 33.4512 31.5362 33.9081 31.9766 34.2585C32.4169 34.6089 32.9401 34.7841 33.5462 34.7841C34.0291 34.7841 34.4553 34.6776 34.8246 34.4645C35.1986 34.2467 35.4898 33.946 35.6982 33.5625C35.9112 33.1742 36.0178 32.7292 36.0178 32.2273C36.0178 31.7159 35.9089 31.2661 35.6911 30.8778C35.478 30.4896 35.1821 30.1866 34.8033 29.9688C34.4245 29.7509 33.9912 29.6397 33.5036 29.6349C33.0774 29.6349 32.6631 29.7225 32.2607 29.8977C31.8629 30.0729 31.5528 30.312 31.3303 30.6151L28.5959 30.125L29.2848 22.4545H38.1768V24.9688H31.8203L31.4439 28.6122H31.5291C31.7848 28.2524 32.1707 27.9541 32.6868 27.7173C33.2029 27.4806 33.7805 27.3622 34.4197 27.3622C35.2957 27.3622 36.0769 27.5682 36.7635 27.9801C37.45 28.392 37.9922 28.9579 38.3899 29.6776C38.7876 30.3925 38.9841 31.2164 38.9794 32.1491C38.9841 33.1293 38.7569 34.0005 38.2976 34.7628C37.843 35.5204 37.2062 36.117 36.3871 36.5526C35.5727 36.9834 34.6257 37.1989 33.5462 37.1989Z" fill="white"/>
<defs>
<filter id="filter0_d_1102_43" x="0" y="0" width="66" height="83.2235" filterUnits="userSpaceOnUse" color-interpolation-filters="sRGB">
<feFlood flood-opacity="0" result="BackgroundImageFix"/>
<feColorMatrix in="SourceAlpha" type="matrix" values="0 0 0 0 0 0 0 0 0 0 0 0 0 0 0 0 0 0 127 0" result="hardAlpha"/>
<feOffset dy="4"/>
<feGaussianBlur stdDeviation="2"/>
<feComposite in2="hardAlpha" operator="out"/>
<feColorMatrix type="matrix" values="0 0 0 0 0 0 0 0 0 0 0 0 0 0 0 0 0 0 0.25 0"/>
<feBlend mode="normal" in2="BackgroundImageFix" result="effect1_dropShadow_1102_43"/>
<feBlend mode="normal" in="SourceGraphic" in2="effect1_dropShadow_1102_43" result="shape"/>
</filter>
</defs>
</svg>
