<svg width="66" height="84" viewBox="0 0 66 84" fill="none" xmlns="http://www.w3.org/2000/svg">
<g filter="url(#filter0_d_1102_37)">
<path d="M33 0C17.0181 0 4 13.0181 4 29C4 33.4788 5.85655 38.2464 8.40664 43.1828C10.9567 48.1198 14.2889 53.1851 17.6051 57.7734C24.2374 66.9496 30.8477 74.2672 30.8477 74.2672C31.1196 74.5683 31.4516 74.8089 31.8224 74.9737C32.1931 75.1384 32.5943 75.2235 33 75.2235C33.4057 75.2235 33.8069 75.1384 34.1776 74.9737C34.5484 74.8089 34.8804 74.5683 35.1523 74.2672C35.1523 74.2672 41.7626 66.9496 48.3949 57.7734C51.7111 53.1851 55.0433 48.1198 57.5934 43.1828C60.1435 38.2464 62 33.4788 62 29C62 13.0181 48.9819 0 33 0ZM33 5.8C45.8474 5.8 56.2 16.1524 56.2 29C56.2 31.7289 54.794 35.9834 52.4504 40.5207C50.1067 45.0575 46.9139 49.9357 43.7051 54.375C38.363 61.7665 34.6445 65.8333 33 67.6969C31.3555 65.8333 27.637 61.7665 22.2949 54.375C19.0861 49.9357 15.8933 45.0575 13.5496 40.5207C11.206 35.9834 9.8 31.7289 9.8 29C9.8 16.1524 20.1526 5.8 33 5.8ZM33 14.5C26.6278 14.5 21.4 19.7281 21.4 26.1C21.4 32.4725 26.6278 37.7 33 37.7C39.3722 37.7 44.6 32.4725 44.6 26.1C44.6 19.7281 39.3722 14.5 33 14.5ZM33 20.3C36.2376 20.3 38.8 22.8624 38.8 26.1C38.8 29.3376 36.2376 31.9 33 31.9C29.7624 31.9 27.2 29.3376 27.2 26.1C27.2 22.8624 29.7624 20.3 33 20.3Z" fill="white"/>
</g>
<path d="M33 5.79998C20.1526 5.79998 9.79999 16.1524 9.79999 29C9.79999 31.7289 11.2059 35.9833 13.5496 40.5207C15.8933 45.0574 19.0861 49.9357 22.2949 54.375C27.637 61.7665 31.3555 65.8333 33 67.6968C34.6445 65.8333 38.363 61.7665 43.7051 54.375C46.9139 49.9357 50.1067 45.0574 52.4504 40.5207C54.794 35.9833 56.2 31.7289 56.2 29C56.2 16.1524 45.8473 5.79998 33 5.79998ZM33 14.5C39.3721 14.5 44.6 19.7281 44.6 26.1C44.6 32.4724 39.3721 37.7 33 37.7C26.6278 37.7 21.4 32.4724 21.4 26.1C21.4 19.7281 26.6278 14.5 33 14.5Z" fill="#3E64DA"/>
<circle cx="33" cy="27" r="15" fill="#3E64DA"/>
<path d="M33.1598 37.1989C32.4117 37.1941 31.6896 37.0687 30.9936 36.8224C30.3023 36.5762 29.6821 36.1761 29.1328 35.6222C28.5836 35.0682 28.148 34.3343 27.826 33.4205C27.5088 32.5066 27.3501 31.3845 27.3501 30.054C27.3549 28.8324 27.4946 27.741 27.7692 26.7798C28.0485 25.8139 28.4463 24.9948 28.9624 24.3224C29.4832 23.6501 30.1058 23.1387 30.8303 22.7884C31.5547 22.4332 32.3667 22.2557 33.2663 22.2557C34.237 22.2557 35.094 22.4451 35.8374 22.8239C36.5807 23.1979 37.1773 23.7069 37.6271 24.3509C38.0817 24.9948 38.3563 25.7169 38.451 26.517H35.4183C35.3 26.0104 35.0514 25.6127 34.6726 25.3239C34.2938 25.035 33.825 24.8906 33.2663 24.8906C32.3194 24.8906 31.5997 25.3026 31.1072 26.1264C30.6196 26.9503 30.371 28.0701 30.3615 29.4858H30.4609C30.6787 29.0549 30.9723 28.688 31.3416 28.3849C31.7157 28.0772 32.1394 27.8428 32.6129 27.6818C33.0911 27.5161 33.5954 27.4332 34.1257 27.4332C34.9875 27.4332 35.7545 27.6368 36.4268 28.044C37.0992 28.4465 37.6295 29.0005 38.0178 29.706C38.406 30.4115 38.6001 31.2187 38.6001 32.1278C38.6001 33.1127 38.3705 33.9886 37.9112 34.7557C37.4567 35.5227 36.8198 36.1241 36.0007 36.5597C35.1863 36.9905 34.2393 37.2036 33.1598 37.1989ZM33.1456 34.7841C33.6191 34.7841 34.0429 34.6705 34.4169 34.4432C34.791 34.2159 35.0845 33.9081 35.2976 33.5199C35.5107 33.1316 35.6172 32.696 35.6172 32.2131C35.6172 31.7301 35.5107 31.2969 35.2976 30.9134C35.0893 30.5298 34.8004 30.2244 34.4311 29.9972C34.0618 29.7699 33.6404 29.6562 33.1669 29.6562C32.8118 29.6562 32.4827 29.7225 32.1797 29.8551C31.8814 29.9877 31.6186 30.1723 31.3913 30.4091C31.1688 30.6458 30.9936 30.9205 30.8658 31.233C30.7379 31.5407 30.674 31.8698 30.674 32.2202C30.674 32.6889 30.7805 33.1174 30.9936 33.5057C31.2114 33.8939 31.505 34.2041 31.8743 34.4361C32.2483 34.6681 32.6721 34.7841 33.1456 34.7841Z" fill="white"/>
<defs>
<filter id="filter0_d_1102_37" x="0" y="0" width="66" height="83.2235" filterUnits="userSpaceOnUse" color-interpolation-filters="sRGB">
<feFlood flood-opacity="0" result="BackgroundImageFix"/>
<feColorMatrix in="SourceAlpha" type="matrix" values="0 0 0 0 0 0 0 0 0 0 0 0 0 0 0 0 0 0 127 0" result="hardAlpha"/>
<feOffset dy="4"/>
<feGaussianBlur stdDeviation="2"/>
<feComposite in2="hardAlpha" operator="out"/>
<feColorMatrix type="matrix" values="0 0 0 0 0 0 0 0 0 0 0 0 0 0 0 0 0 0 0.25 0"/>
<feBlend mode="normal" in2="BackgroundImageFix" result="effect1_dropShadow_1102_37"/>
<feBlend mode="normal" in="SourceGraphic" in2="effect1_dropShadow_1102_37" result="shape"/>
</filter>
</defs>
</svg>
