<svg width="66" height="84" viewBox="0 0 66 84" fill="none" xmlns="http://www.w3.org/2000/svg">
<g filter="url(#filter0_d_1102_16)">
<path d="M33 0C17.0181 0 4 13.0181 4 29C4 33.4788 5.85655 38.2464 8.40664 43.1828C10.9567 48.1198 14.2889 53.1851 17.6051 57.7734C24.2374 66.9496 30.8477 74.2672 30.8477 74.2672C31.1196 74.5683 31.4516 74.8089 31.8224 74.9737C32.1931 75.1384 32.5943 75.2235 33 75.2235C33.4057 75.2235 33.8069 75.1384 34.1776 74.9737C34.5484 74.8089 34.8804 74.5683 35.1523 74.2672C35.1523 74.2672 41.7626 66.9496 48.3949 57.7734C51.7111 53.1851 55.0433 48.1198 57.5934 43.1828C60.1435 38.2464 62 33.4788 62 29C62 13.0181 48.9819 0 33 0ZM33 5.8C45.8474 5.8 56.2 16.1524 56.2 29C56.2 31.7289 54.794 35.9834 52.4504 40.5207C50.1067 45.0575 46.9139 49.9357 43.7051 54.375C38.363 61.7665 34.6445 65.8333 33 67.6969C31.3555 65.8333 27.637 61.7665 22.2949 54.375C19.0861 49.9357 15.8933 45.0575 13.5496 40.5207C11.206 35.9834 9.8 31.7289 9.8 29C9.8 16.1524 20.1526 5.8 33 5.8ZM33 14.5C26.6278 14.5 21.4 19.7281 21.4 26.1C21.4 32.4725 26.6278 37.7 33 37.7C39.3722 37.7 44.6 32.4725 44.6 26.1C44.6 19.7281 39.3722 14.5 33 14.5ZM33 20.3C36.2376 20.3 38.8 22.8624 38.8 26.1C38.8 29.3376 36.2376 31.9 33 31.9C29.7624 31.9 27.2 29.3376 27.2 26.1C27.2 22.8624 29.7624 20.3 33 20.3Z" fill="white"/>
</g>
<path d="M33 5.79998C20.1526 5.79998 9.79999 16.1524 9.79999 29C9.79999 31.7289 11.2059 35.9833 13.5496 40.5207C15.8933 45.0574 19.0861 49.9357 22.2949 54.375C27.637 61.7665 31.3555 65.8333 33 67.6968C34.6445 65.8333 38.363 61.7665 43.7051 54.375C46.9139 49.9357 50.1067 45.0574 52.4504 40.5207C54.794 35.9833 56.2 31.7289 56.2 29C56.2 16.1524 45.8473 5.79998 33 5.79998ZM33 14.5C39.3721 14.5 44.6 19.7281 44.6 26.1C44.6 32.4724 39.3721 37.7 33 37.7C26.6278 37.7 21.4 32.4724 21.4 26.1C21.4 19.7281 26.6278 14.5 33 14.5Z" fill="#3E64DA"/>
<circle cx="33" cy="27" r="15" fill="#3E64DA"/>
<path d="M28.3801 37V34.7841L33.5577 29.9901C33.998 29.5639 34.3674 29.1804 34.6657 28.8395C34.9687 28.4986 35.1983 28.1648 35.3546 27.8381C35.5108 27.5066 35.589 27.1491 35.589 26.7656C35.589 26.3395 35.4919 25.9725 35.2978 25.6648C35.1036 25.3523 34.8385 25.1132 34.5023 24.9474C34.1661 24.777 33.785 24.6918 33.3588 24.6918C32.9138 24.6918 32.5255 24.7817 32.1941 24.9616C31.8626 25.1416 31.6069 25.3996 31.427 25.7358C31.2471 26.072 31.1571 26.4721 31.1571 26.9361H28.2381C28.2381 25.9844 28.4535 25.1581 28.8844 24.4574C29.3153 23.7566 29.919 23.2145 30.6955 22.831C31.472 22.4474 32.3669 22.2557 33.3801 22.2557C34.4218 22.2557 35.3285 22.4403 36.1003 22.8097C36.8768 23.1742 37.4805 23.6809 37.9114 24.3295C38.3423 24.9782 38.5577 25.7216 38.5577 26.5597C38.5577 27.1089 38.4488 27.651 38.231 28.1861C38.0179 28.7211 37.6368 29.3153 37.0875 29.9688C36.5383 30.6174 35.7641 31.3963 34.7651 32.3054L32.6415 34.3864V34.4858H38.7495V37H28.3801Z" fill="white"/>
<defs>
<filter id="filter0_d_1102_16" x="0" y="0" width="66" height="83.2235" filterUnits="userSpaceOnUse" color-interpolation-filters="sRGB">
<feFlood flood-opacity="0" result="BackgroundImageFix"/>
<feColorMatrix in="SourceAlpha" type="matrix" values="0 0 0 0 0 0 0 0 0 0 0 0 0 0 0 0 0 0 127 0" result="hardAlpha"/>
<feOffset dy="4"/>
<feGaussianBlur stdDeviation="2"/>
<feComposite in2="hardAlpha" operator="out"/>
<feColorMatrix type="matrix" values="0 0 0 0 0 0 0 0 0 0 0 0 0 0 0 0 0 0 0.25 0"/>
<feBlend mode="normal" in2="BackgroundImageFix" result="effect1_dropShadow_1102_16"/>
<feBlend mode="normal" in="SourceGraphic" in2="effect1_dropShadow_1102_16" result="shape"/>
</filter>
</defs>
</svg>
